<svg width="24" height="24" viewBox="0 0 24 24" fill="none" xmlns="http://www.w3.org/2000/svg">
<path d="M13.05 6.75C13.05 6.1701 12.5799 5.7 12 5.7C11.4201 5.7 10.95 6.1701 10.95 6.75V9.67552C10.0655 10.0757 9.45001 10.966 9.45001 12C9.45001 13.4083 10.5917 14.55 12 14.55C12.4964 14.55 12.9596 14.4082 13.3514 14.1629L15.9176 15.8736C16.4001 16.1953 17.052 16.0649 17.3737 15.5824C17.6953 15.0999 17.565 14.448 17.0824 14.1263L14.5163 12.4156C14.5385 12.2803 14.55 12.1415 14.55 12C14.55 10.966 13.9346 10.0757 13.05 9.67552V6.75Z" fill="#929898"/>
<path fill-rule="evenodd" clip-rule="evenodd" d="M22.5 12C22.5 17.799 17.799 22.5 12 22.5C6.20101 22.5 1.5 17.799 1.5 12C1.5 6.20101 6.20101 1.5 12 1.5C17.799 1.5 22.5 6.20101 22.5 12ZM20.4 12C20.4 16.6392 16.6392 20.4 12 20.4C7.36081 20.4 3.6 16.6392 3.6 12C3.6 7.36081 7.36081 3.6 12 3.6C16.6392 3.6 20.4 7.36081 20.4 12Z" fill="#929898"/>
</svg>
